HIERARCHY
ROOT root
{
	OFFSET	0	13.1	24.9
	CHANNELS 6  Xposition Yposition Zposition Xrotation Yrotation Zrotation
	JOINT spine_1
	{
		OFFSET	0	9.99999	0
		CHANNELS 3  Xrotation Yrotation Zrotation
		JOINT spine_2
		{
			OFFSET	0	112	-10
			CHANNELS 3  Xrotation Yrotation Zrotation
			JOINT spine_3
			{
				OFFSET	0	206.5	19.3
				CHANNELS 3  Xrotation Yrotation Zrotation
				JOINT spine_4
				{
					OFFSET	0	110.4	14.6
					CHANNELS 3  Xrotation Yrotation Zrotation
					JOINT neck_1
					{
						OFFSET	0	71.8	-50.3
						CHANNELS 3  Xrotation Yrotation Zrotation
						JOINT neck_2
						{
							OFFSET	0	86.2	-25.8
							CHANNELS 3  Xrotation Yrotation Zrotation
							JOINT head_ee
							{
								OFFSET	0	179.8	-8.7
								CHANNELS 3  Xrotation Yrotation Zrotation
								End Site
								{
									OFFSET	1	0	0
								}
							}
						}
					}
					JOINT left_clavicle
					{
						OFFSET	-43.2	22.4	-70.8
						CHANNELS 3  Xrotation Yrotation Zrotation
						JOINT left_shoulder
						{
							OFFSET	-93.9	-5.79999	48.7
							CHANNELS 3  Xrotation Yrotation Zrotation
							JOINT left_elbow
							{
								OFFSET	-291.4	-30.8	15.2
								CHANNELS 3  Xrotation Yrotation Zrotation
								JOINT left_lowarm_twist
								{
									OFFSET	-110.7	-3.89999	13.6
									CHANNELS 3  Xrotation Yrotation Zrotation
									JOINT left_hand
									{
										OFFSET	-110.7	-3.89999	13.6
										CHANNELS 3  Xrotation Yrotation Zrotation
										JOINT left_ee
										{
											OFFSET	-80.8	-5.10001	12.1
											CHANNELS 3  Xrotation Yrotation Zrotation
											End Site
											{
												OFFSET	1	0	0
											}
										}
									}
								}
							}
						}
					}
					JOINT right_clavicle
					{
						OFFSET	43.2	22.4	-70.8
						CHANNELS 3  Xrotation Yrotation Zrotation
						JOINT right_shoulder
						{
							OFFSET	93.9	-5.79999	48.7
							CHANNELS 3  Xrotation Yrotation Zrotation
							JOINT right_elbow
							{
								OFFSET	291.4	-30.8	15.2
								CHANNELS 3  Xrotation Yrotation Zrotation
								JOINT right_lowarm_twist
								{
									OFFSET	110.7	-3.89999	13.6
									CHANNELS 3  Xrotation Yrotation Zrotation
									JOINT right_hand
									{
										OFFSET	110.7	-3.89999	13.6
										CHANNELS 3  Xrotation Yrotation Zrotation
										JOINT right_ee
										{
											OFFSET	80.8	-5.10001	12.1
											CHANNELS 3  Xrotation Yrotation Zrotation
											End Site
											{
												OFFSET	1	0	0
											}
										}
									}
								}
							}
						}
					}
				}
			}
		}
	}
	JOINT left_hip
	{
		OFFSET	-82.8	-127.5	0.300001
		CHANNELS 3  Xrotation Yrotation Zrotation
		JOINT left_knee
		{
			OFFSET	-28.2	-396.7	2.2
			CHANNELS 3  Xrotation Yrotation Zrotation
			JOINT left_ankle
			{
				OFFSET	-11.7	-411.3	35.4
				CHANNELS 3  Xrotation Yrotation Zrotation
				JOINT left_toes
				{
					OFFSET	0	-60	-88.6
					CHANNELS 3  Xrotation Yrotation Zrotation
					JOINT left_foot_ee
					{
						OFFSET	-22.5	-16.5	-42.2
						CHANNELS 3  Xrotation Yrotation Zrotation
						End Site
						{
							OFFSET	1	0	0
						}
					}
				}
			}
		}
	}
	JOINT right_hip
	{
		OFFSET	82.8	-127.5	0.300001
		CHANNELS 3  Xrotation Yrotation Zrotation
		JOINT right_knee
		{
			OFFSET	28.2	-396.7	2.2
			CHANNELS 3  Xrotation Yrotation Zrotation
			JOINT right_ankle
			{
				OFFSET	11.7	-411.3	35.4
				CHANNELS 3  Xrotation Yrotation Zrotation
				JOINT right_toes
				{
					OFFSET	0	-60	-88.6
					CHANNELS 3  Xrotation Yrotation Zrotation
					JOINT right_foot_ee
					{
						OFFSET	22.5	-16.5	-42.2
						CHANNELS 3  Xrotation Yrotation Zrotation
						End Site
						{
							OFFSET	1	0	0
						}
					}
				}
			}
		}
	}
}
MOTION
Frames: 10
Frame Time: 0.02
2800.94 716.97 -1473.77 -2.91261927267 76.778452538 -3.3554546722 -0.0147013 0.367879 3.76022 -0.00684587 0.128035 3.77598 0.00535841 -0.668945 3.71854 -0.0139259 -0.0737137 3.77743 -13.6526 13.57 -18.6392 -13.6466 37.2498 -13.6325 -0.0 0.0 -0.0 -9.64492 22.0194 -11.3874 25.9307 -33.3748 75.7242 4.84001 -67.3361 3.22505 -26.053 -1.60423 2.89015 -1.37447 14.4877 -2.6166 -0.0 0.0 -0.0 9.21151 1.89714 -18.0955 -32.313 37.1468 -63.6337 0.436975 12.2143 -0.0467545 -54.6692 4.62823 -4.90455 -3.27453 -20.2108 11.3549 0.0 0.0 0.0 -17.7168 -1.24354 11.3589 -18.0363 0.313842 2.73862 41.1075 14.7606 -5.02706 -15.5032 0.0 0.0 -0.0 0.0 -0.0 33.5903 20.7589 -0.928815 -2.37374 -0.0904326 -0.35304 -7.30565 2.81022 -1.10687 -16.3554 0.0 0.0 0.0 0.0 0.0 
2732.06397104 722.139 -1489.36553895 5.93398962323 81.4218519042 -14.1472211782 -0.159473 0.464178 3.98084 -0.150683 0.210133 4.00226 -0.131303 -0.645662 3.9555 -0.153131 -0.0133843 4.00774 -11.5447 13.7001 -17.2474 -11.2752 37.0477 -13.0371 -0.0 0.0 -0.0 -9.89519 23.1506 -11.2965 16.0379 -37.6928 72.712 4.36064 -65.1385 2.78625 -23.715 -1.40815 2.66361 -0.476151 11.7874 1.84189 -0.0 0.0 -0.0 10.5766 1.93401 -20.9511 -30.9608 37.8905 -61.598 0.446121 12.462 -0.0487089 -54.4417 4.60071 -4.8948 -3.11225 -21.1947 9.82076 0.0 0.0 0.0 -21.7437 -2.53708 11.4564 -16.7362 0.320218 2.53925 29.575 11.0553 -3.85631 -16.0162 0.0 0.0 -0.0 0.0 -0.0 31.2997 21.023 0.534243 -9.85019 -0.278556 -1.48417 -8.05091 11.4281 -1.27444 -16.8878 0.0 0.0 0.0 0.0 0.0 
2732.39243013 722.139 -1490.75113261 5.23610387247 80.2719677252 -13.4403703375 -0.159473 0.464178 3.98084 -0.150683 0.210133 4.00226 -0.131303 -0.645662 3.9555 -0.153131 -0.0133843 4.00774 -11.5447 13.7001 -17.2474 -11.2752 37.0477 -13.0371 -0.0 0.0 -0.0 -9.89519 23.1506 -11.2965 16.0379 -37.6928 72.712 4.36064 -65.1385 2.78625 -23.715 -1.40815 2.66361 -0.476151 11.7874 1.84189 -0.0 0.0 -0.0 10.5766 1.93401 -20.9511 -30.9608 37.8905 -61.598 0.446121 12.462 -0.0487089 -54.4417 4.60071 -4.8948 -3.11225 -21.1947 9.82076 0.0 0.0 0.0 -21.7437 -2.53708 11.4564 -16.7362 0.320218 2.53925 29.575 11.0553 -3.85631 -16.0162 0.0 0.0 -0.0 0.0 -0.0 31.2997 21.023 0.534243 -9.85019 -0.278556 -1.48417 -8.05091 11.4281 -1.27444 -16.8878 0.0 0.0 0.0 0.0 0.0 
2712.9039965 722.037 -1498.1118752 7.68415099104 81.822572454 -15.9425918296 -0.237121 0.522672 4.16965 -0.227488 0.256526 4.1944 -0.203277 -0.646405 4.1523 -0.22733 0.0168832 4.20219 -11.1938 13.9217 -17.2014 -10.8753 37.4946 -13.0686 -0.0 0.0 -0.0 -8.69964 21.1454 -10.2851 11.5221 -38.3114 69.0183 4.05496 -63.5159 2.51071 -23.0832 -1.35677 2.60105 0.0127363 10.9592 4.61173 -0.0 0.0 -0.0 10.9913 3.19549 -21.89 -29.723 38.3584 -61.6314 0.458987 12.8097 -0.0515233 -54.3833 4.59365 -4.89229 -3.01726 -20.4989 9.64009 0.0 0.0 0.0 -21.4059 -1.74112 11.4545 -14.8661 0.321454 2.25235 26.733 11.4677 -3.54229 -15.6098 0.0 0.0 -0.0 0.0 -0.0 30.4852 20.1282 0.286819 -11.7507 -0.302724 -1.77478 -4.18929 10.7415 -0.655497 -15.7436 0.0 0.0 0.0 0.0 0.0 
2685.90822525 729.658 -1499.19544589 12.1869889855 81.6783064313 -20.7008754591 -0.21733 0.634345 4.0597 -0.208242 0.374952 4.09177 -0.176105 -0.506483 4.0776 -0.199272 0.143292 4.10639 -11.2379 13.6243 -19.2109 -10.6889 38.2444 -15.2131 -0.0 0.0 -0.0 -8.53028 22.331 -9.58821 7.89866 -38.7025 68.0279 3.78452 -61.9075 2.27034 -22.2321 -1.28866 2.5159 0.16169 11.6924 5.85519 -0.0 0.0 -0.0 10.9051 3.50116 -21.7172 -29.5674 38.6852 -61.0074 0.461937 12.8893 -0.0521794 -54.8902 4.65499 -4.91391 -2.95107 -20.0698 9.47863 0.0 0.0 0.0 -21.117 -1.60159 11.4783 -16.2819 0.32138 2.46956 28.6954 9.06839 -3.75142 -15.2828 0.0 0.0 -0.0 0.0 -0.0 28.2945 19.7212 0.924182 -12.2923 -0.307844 -1.85771 -7.20316 13.0764 -1.15116 -15.0775 0.0 0.0 0.0 0.0 0.0 
2657.13092552 731.734 -1507.47731517 7.41613749057 82.1284001064 -16.066119515 -0.247721 0.868825 4.33609 -0.237459 0.59142 4.38246 -0.185627 -0.357269 4.40768 -0.212565 0.34263 4.40884 -11.1073 13.6781 -18.3009 -10.6383 37.7746 -14.3108 -0.0 0.0 -0.0 -8.98534 23.7774 -9.70549 5.52206 -38.6534 67.24 3.48341 -59.8924 2.0072 -23.7824 -1.41367 2.67026 0.257701 10.3787 5.94991 -0.0 0.0 -0.0 11.0007 3.73234 -21.9319 -28.395 39.2557 -62.2849 0.557983 15.4514 -0.0756978 -54.736 4.63631 -4.90739 -2.90648 -21.5761 8.38616 0.0 0.0 0.0 -20.7821 -3.42195 11.0793 -18.061 0.313677 2.74242 26.0334 8.44827 -3.45143 -15.3113 0.0 0.0 -0.0 0.0 -0.0 27.5368 19.3229 0.37008 -12.671 -0.310959 -1.91574 -4.78032 13.8042 -0.764314 -16.0474 0.0 0.0 0.0 0.0 0.0 
2657.33474686 731.734 -1508.33536231 7.10999584303 81.7890430605 -15.7569392232 -0.247721 0.868825 4.33609 -0.237459 0.59142 4.38246 -0.185627 -0.357269 4.40768 -0.212565 0.34263 4.40884 -11.1073 13.6781 -18.3009 -10.6383 37.7746 -14.3108 -0.0 0.0 -0.0 -8.98534 23.7774 -9.70549 5.52206 -38.6534 67.24 3.48341 -59.8924 2.0072 -23.7824 -1.41367 2.67026 0.257701 10.3787 5.94991 -0.0 0.0 -0.0 11.0007 3.73234 -21.9319 -28.395 39.2557 -62.2849 0.557983 15.4514 -0.0756978 -54.736 4.63631 -4.90739 -2.90648 -21.5761 8.38616 0.0 0.0 0.0 -20.7821 -3.42195 11.0793 -18.061 0.313677 2.74242 26.0334 8.44827 -3.45143 -15.3113 0.0 0.0 -0.0 0.0 -0.0 27.5368 19.3229 0.37008 -12.671 -0.310959 -1.91574 -4.78032 13.8042 -0.764314 -16.0474 0.0 0.0 0.0 0.0 0.0 
2657.44513356 731.734 -1508.7907982 6.95743350834 81.608630911 -15.6027617402 -0.247721 0.868825 4.33609 -0.237459 0.59142 4.38246 -0.185627 -0.357269 4.40768 -0.212565 0.34263 4.40884 -11.1073 13.6781 -18.3009 -10.6383 37.7746 -14.3108 -0.0 0.0 -0.0 -8.98534 23.7774 -9.70549 5.52206 -38.6534 67.24 3.48341 -59.8924 2.0072 -23.7824 -1.41367 2.67026 0.257701 10.3787 5.94991 -0.0 0.0 -0.0 11.0007 3.73234 -21.9319 -28.395 39.2557 -62.2849 0.557983 15.4514 -0.0756978 -54.736 4.63631 -4.90739 -2.90648 -21.5761 8.38616 0.0 0.0 0.0 -20.7821 -3.42195 11.0793 -18.061 0.313677 2.74242 26.0334 8.44827 -3.45143 -15.3113 0.0 0.0 -0.0 0.0 -0.0 27.5368 19.3229 0.37008 -12.671 -0.310959 -1.91574 -4.78032 13.8042 -0.764314 -16.0474 0.0 0.0 0.0 0.0 0.0 
2634.96206727 738.163 -1509.64952545 10.3307369605 83.3190197386 -18.8843284906 -0.192073 0.794271 4.37386 -0.18158 0.51462 4.41542 -0.135548 -0.435702 4.42389 -0.162749 0.267728 4.4372 -11.4946 13.2474 -18.7207 -11.0286 37.1676 -14.7084 -0.0 0.0 -0.0 -8.63056 23.945 -9.12973 2.13927 -38.2795 65.5995 3.02644 -56.2844 1.6191 -25.2453 -1.53544 2.81279 0.169924 12.5721 6.25459 -0.0 0.0 -0.0 10.8203 4.72609 -21.5767 -27.1408 40.1532 -63.2374 0.719607 19.6198 -0.124427 -54.6127 4.62139 -4.90214 -2.91839 -22.7811 7.79546 0.0 0.0 0.0 -19.8596 -4.53503 10.8003 -20.0709 0.29479 3.05021 25.1444 8.17416 -3.34862 -15.4773 0.0 0.0 -0.0 0.0 -0.0 25.765 18.8063 0.583604 -13.1973 -0.31465 -1.9964 -3.61111 15.431 -0.58296 -15.2347 0.0 0.0 0.0 0.0 0.0 
2587.7733257 749.13 -1504.2255326 25.0416592804 87.4085454987 -33.7944741458 0.100022 0.790436 4.5101 0.111194 0.50215 4.55114 0.156879 -0.453549 4.55623 0.128023 0.270939 4.57069 -12.6874 13.416 -19.8935 -12.3477 37.9719 -15.3583 -0.0 0.0 -0.0 -8.11114 23.5567 -8.52738 -4.92572 -37.769 63.054 2.39477 -49.863 1.11334 -22.8333 -1.33665 2.57616 0.792594 10.3167 9.37975 -0.0 0.0 -0.0 10.8785 3.20151 -21.6482 -26.7488 39.5482 -61.583 1.15283 29.7287 -0.305985 -56.4139 4.84044 -4.97561 -3.87303 -23.3613 13.0646 0.0 0.0 0.0 -16.5635 -5.62376 10.1709 -22.4723 0.258085 3.41683 25.166 3.1284 -3.35619 -15.5181 0.0 0.0 -0.0 0.0 -0.0 19.9737 17.8156 0.92815 -9.35039 -0.270601 -1.40789 3.46906 16.1418 0.552513 -18.5308 0.0 0.0 0.0 0.0 0.0 
